<svg xmlns="http://www.w3.org/2000/svg" width="48" height="48" viewBox="-64 -64 128 128" clip-path="inset(0px 0px round 5px)">
  <rect x="-64" y="-64" width="128" height="128" stroke="none" fill="#37C"/>
  <g transform="scale(0.1875)">
    <path d="M 150 -200 L 50 0 35 194 A 35 10 -15 1 1 -35 210 L -45 215 L 252 512 H 512 V 157 L 160 -205 z"
      fill="black" fill-opacity="0.15"/>
    <path d="M -150 -200 A 150 30 0 0 0 150 -200 A 150 30 0 0 0 -150 -200 z" fill="white" fill-opacity="0.6"/>
    <!--path d="M -150 -200 A 150 30 0 0 1 150 -200 L 50 0 35 194 A 35 10 -15 1 1 -35 210 L -50 0 z"
      fill="white" fill-opacity="0.6"/-->
    <!-- Google Asset Studio workaround: seems to ignore cw/ccw ellipse arc request -->
    <path d="M -50 0 L 50 0 35 194 A 35 10 -15 1 1 -35 210 z" fill="white" fill-opacity="0.9"/>
    <path d="M -50 0 L 50 0 150 -200 A 150 30 0 0 1 -150 -200 z" fill="white" fill-opacity="0.9"/>
    <!--path d="M 0 -170 A 150 30 0 1 1 150 -200 L 50 0 35 194 A 35 10 -15 1 1 -35 210 M 50 0 A 50 10 0 1 1 -50 0"
      stroke="white" fill="none" stroke-width="50" stroke-linejoin="round" stroke-linecap="round"/-->
  </g>
</svg>
