<svg xmlns="http://www.w3.org/2000/svg" width="512" height="512" viewBox="-512 -512 1024 1024">
  <rect x="-512" y="-512" width="1024" height="1024" stroke="none" fill="#37C"/>
  <path d="M 150 -200 L 50 0 35 194 A 35 10 -15 1 1 -35 210 L -45 215 L 252 512 H 512 V 157 L 160 -205 z"
    fill="black" fill-opacity="0.15"/>
  <path d="M -150 -200 A 150 30 0 0 0 150 -200 A 150 30 0 0 0 -150 -200 z" fill="white" fill-opacity="0.3"/>
  <path d="M -50 0 L 50 0 35 194 A 35 10 -15 1 1 -35 210 z" fill="white" fill-opacity="0.6"/>
  <path d="M -50 0 L 50 0 150 -200 A 150 30 0 0 1 -150 -200 z" fill="white" fill-opacity="0.6"/>
  <path d="M 0 -170 A 150 30 0 1 1 150 -200 L 50 0 35 194 A 35 10 -15 1 1 -35 210 M 50 0 A 50 10 0 1 1 -50 0"
    stroke="white" fill="none" stroke-width="20" stroke-linejoin="round" stroke-linecap="round"/>
</svg>
