<svg xmlns="http://www.w3.org/2000/svg" version="1.1" width="10" height="10" viewBox="-5 -5 10 10">
  <defs>
    <linearGradient id="fill" x1="0%" y1="100%" x2="100%" y2="0%">
      <stop offset="25%" stop-color="#888"/>
      <stop offset="75%" stop-color="#aaa"/>
    </linearGradient>
  </defs>
  <path fill="url(#fill)" stroke-width="0.5"
    d="M 3 0 L 2.92,0.67 4.05,1.95 3.52,2.81 1.87,2.35 1.30,2.70 1.00,4.29 0,4.5 -0.67,2.92 -1.30,2.70 -2.81,3.52 -3.52,2.81 -2.70,1.30 -2.92,0.67 -4.5,0 -4.39,-1.00 -2.70,-1.30 -2.35,-1.87 -2.81,-3.52 -1.95,-4.05 -0.67,-2.92 0,-3 1.00,-4.39 1.95,-4.05 1.87,-2.35 2.35,-1.87 4.05,-1.95 4.39,-1.00 z M 2,0 A 2,2 0,0,0 -2,0 2,2 0,0,0 2,0 z"/>
</svg>
